<?xml version="1.0" standalone="no"?><!DOCTYPE svg PUBLIC "-//W3C//DTD SVG 1.1//EN" "http://www.w3.org/Graphics/SVG/1.1/DTD/svg11.dtd"><svg t="1621581971089" class="icon" viewBox="0 0 1028 1024" version="1.1" xmlns="http://www.w3.org/2000/svg" p-id="4308" xmlns:xlink="http://www.w3.org/1999/xlink" width="200.78125" height="200"><defs><style type="text/css"></style></defs><path d="M786.432 1003.52h-190.21824a34.69312 34.69312 0 0 1-35.30752-35.30752V664.3712h-108.99456v304.00512a34.69312 34.69312 0 0 1-35.30752 35.14368H229.376a106.12736 106.12736 0 0 1-105.92256-105.92256v-310.14912h-20.02944A82.57536 82.57536 0 0 1 20.48 504.54528a78.6432 78.6432 0 0 1 23.06048-56.77056L401.408 68.48512a154.8288 154.8288 0 0 1 218.03008-6.10304 11.79648 11.79648 0 0 0 6.144 6.10304L983.04 447.77472a82.1248 82.1248 0 0 1-59.88352 139.6736h-30.72v310.14912A106.12736 106.12736 0 0 1 786.432 1003.52z m-153.55904-70.61504H786.432a37.31456 37.31456 0 0 0 36.864-36.864v-344.064a34.816 34.816 0 0 1 35.34848-35.34848h66.23232a11.4688 11.4688 0 0 0 10.73152-7.65952 12.288 12.288 0 0 0-3.03104-13.80352l-359.38304-377.52832a82.98496 82.98496 0 0 0-117.9648-3.03104 3.2768 3.2768 0 0 0-3.11296 3.03104L94.208 495.32928a12.288 12.288 0 0 0 0 16.91648 11.38688 11.38688 0 0 0 9.25696 3.03104h56.7296a34.69312 34.69312 0 0 1 35.34848 35.30752v345.45664a37.31456 37.31456 0 0 0 36.864 36.864H384.2048V664.3712a70.4512 70.4512 0 0 1 70.77888-70.77888h108.9536a70.4512 70.4512 0 0 1 70.61504 70.77888l-1.51552 268.65664z" p-id="4309" fill="#d81e06"></path></svg>